<?xml version="1.0" encoding="UTF-8"?>
<svg id="Ebene_6_Kopie" data-name="Ebene 6 Kopie" xmlns="http://www.w3.org/2000/svg" viewBox="0 0 580 580" fill="#4d4d4d">
  <path d="M372.46,176.99c-17.34-74.3-66.84-137.25-152.9-137.25-109.7,0-160,102.3-160,200,0,61.16,21.08,97.86,79.67,112.28,1.19.3,1.47,1.86.47,2.56-8.48,5.93-18,11.2-27.44,16.46-36.4,20.2-72.7,40.4-72.7,98.7,0,23,22.5,39.5,53.8,50.5,37.6,13.3,89.3,19.5,126.2,19.5,10.49,0,22.17-.5,34.4-1.52.73-.06,1.3-.67,1.3-1.41v-17.21c0-.82-.71-1.47-1.53-1.4-7.81.66-15.46,1.13-22.72,1.39-.8.03-1.45-.61-1.45-1.41v-72.79c0-.52.28-1.02.74-1.25,5.68-2.87,13.99-3.02,23.39-2.01.84.09,1.57-.56,1.57-1.4l5.87-21.15c.06-.03.12-.07.17-.11,10.85-7.85,20.69-15.67,27.7-25.53.62-.88,1.96-.75,2.41.22,1.13,2.43,2.26,4.92,3.34,7.45,2.37,5.6,4.45,11.38,5.64,17.01.13.65.7,1.12,1.37,1.12h57.83c.78,0,1.41-.63,1.41-1.41v-25.62c0-.45-.21-.88-.58-1.15-10.39-7.66-21.97-14.09-33.56-20.52-9.43-5.26-18.95-10.52-27.43-16.46-1.01-.7-.72-2.26.47-2.56,28.33-7.08,51.47-17.28,60.71-37.04l4.08-9.43c0-1.17-3.89-6.21-5.06-6.21l-3.59-1.26c-.06-.03-.13-.05-.2-.06-3.91-.87-8.03.08-11.1,2.66-.29.25-2.82,2.58-2.89,2.68-10.13,16.52-22,23.37-47.1,29.46-3.86.95-7.92,1.78-12.19,2.52l-.1-.3c-1.95-6.33-2.47-13.62-2.78-20.83-.01-.37.12-.72.36-.99,3.14-3.53,5.99-7.29,8.58-11.23.92-1.4-.1-3.27-1.78-3.27l-14.7-1.84c-1.95-.24-3.93-.11-5.81.45-.57.17-.97.39-1.14.48-2.74,1.47-4.38,4.58-5.08,7.18-.79,2.97-1.41,8.29-1.43,8.52-1.02,10.6,1.37,16.22,4.68,27.23,2.73,9.06,7.35,17.26,15.26,23.59.39.32.61.82.54,1.32-1.96,14.19-11.56,24.01-23.9,33.46-3.67,2.81-7.58,5.58-11.6,8.43-7.72,5.5-15.81,11.37-23.64,18.15-.5.43-1.23.46-1.76.06-2.87-2.17-6.06-4.37-9.5-6.81-18.38-12.75-44.66-31.06-48.66-53.39.18-.47.32-.85.5-1.33,7.62-6.23,12.24-14.33,15.06-23.38,3.64-11.41,3.89-22.82,3.9-34.6,0-.38-.16-.76-.43-1.03-8.74-8.7-13.86-15.96-19.17-27.37-5.2-11.19-8.58-22.58-11.73-34.35-.11-.41-.4-.76-.78-.96-8.26-4.16-13.68-7.62-17.39-16.99-2.3-5.57-2.95-11.96-2.02-18.21.07-.49.4-.92.85-1.14,14.29-6.85,17.99-6.75,30.97-6.55,16.6.2,33.1.1,49.7.1,27.18,0,46.23-24.66,58.7-46.25.65-1.12,2.35-.84,2.6.44l.4,2.01c1.33,7.07,2.78,14.66,5.56,21.88.2.54.73.9,1.32.9h19.91c1.15,0,1.8-1.29,1.13-2.24-5.09-7.27-6.81-16.2-8.32-24.24-2.6-13.5-4.8-25.4-16.8-31.4l-8.85-4.38c-.77-.38-1.69,0-1.96.81l-2.86,8.57c-.02.07-.04.13-.07.19-9.22,18.32-27.2,53.71-50.76,53.71-16.5,0-33,.2-49.4,0-18.4-.3-22.2-.4-45.1,11.1l-3.26,1.63c-.35.17-.6.48-.72.84l-1.12,3.63c-3.4,11.9-2.9,24.8,1.6,36.1,3.64,9.25,10.09,17.43,19.05,23.12.29.18.5.46.59.79,2.78,9.74,6.24,19.75,10.66,29.29,4.52,9.83,10.2,19.07,17.32,26.98.24.27.37.62.36.98-.22,7.12-.93,14.41-2.98,20.74l-.1.4c-56.7-9.9-76.9-37-76.9-95.6,0-86.3,41.8-180,140-180,74.6,0,116.65,54.09,132.55,117.91.15.63.71,1.07,1.36,1.07h17.61c.91,0,1.59-.85,1.38-1.73ZM208.76,444.25c.5.23.8.73.8,1.27v72.67c0,.79-.65,1.43-1.45,1.4-8.82-.31-18.2-.95-27.75-1.84-.69-.06-1.24-.62-1.29-1.31-2.21-28.26-11.22-48.08-20.07-68.02-.37-.85.16-1.82,1.07-1.96,1.34-.21,2.69-.41,3.99-.62,17.69-2.92,35.28-5.83,44.7-1.59ZM149.24,391.3c7.3,11.54,17.82,21.42,28.52,29.85.98.77.55,2.34-.68,2.49-5.33.69-10.78,1.59-16.22,2.5-7.48,1.22-14.87,2.43-21.85,3.07-.8.08-1.5-.53-1.53-1.32-.46-11.64,4.28-24.97,9.29-36.39.45-1.03,1.86-1.15,2.47-.2ZM437.91,258.72v241.02h101.41v40h-244.98v-38.59c0-.78.63-1.41,1.41-1.41h102.16v-241.02h-101.75c-.78,0-1.41-.63-1.41-1.41v-38.59h244.57v40h-101.41Z"/>
</svg>