<?xml version="1.0" encoding="UTF-8"?>
<svg id="Ebene_6_Kopie_2" data-name="Ebene 6 Kopie 2" xmlns="http://www.w3.org/2000/svg" viewBox="0 0 580 580" fill="#4d4d4d">
  <path d="M295.09,240.84l-4.1,2-1.1,4.3c-2.8,10.2-6.1,20.7-10.6,30.4-5.4,11.8-10.8,19.2-19.9,28.1.3,11.8.5,23.8,3.9,35.1.19.63.39,1.26.6,1.88h62.85c38.28-18.33,52.75-52.21,52.75-102.88,0-97.7-50.3-200-160-200S59.49,142.04,59.49,239.74c0,62.2,21.8,99.1,82.7,113-9.1,6.7-19.6,12.5-30,18.3-36.4,20.2-72.7,40.4-72.7,98.7,0,23,22.5,39.5,53.8,50.5,37.6,13.3,89.3,19.5,126.2,19.5s88.6-6.2,126.2-19.5c1.24-.44,2.48-.88,3.69-1.34l-74.25-89.12c-2.92-3.5-7.79-6.13-12.3-6.8l-43.74,3.46c-3.1-2.4-6.6-4.8-10.4-7.5-18.6-12.9-45.3-31.5-48.8-54.2,8-6.3,12.8-14.6,15.7-23.9,3.7-11.6,3.9-23.2,3.9-35.2-9-8.9-14.2-16.2-19.6-27.8-5.3-11.4-8.7-23-11.9-35-8.6-4.3-14.2-7.7-18-17.3-2.4-5.8-3-12.5-1.9-19,14.9-7.2,18.5-7.1,31.7-6.9,16.6.2,33.1.1,49.7.1,28.6,0,48.2-27.3,60.6-49.6.4,1.9.7,3.8,1.1,5.8,3.7,19.6,8.2,43.1,39.9,52.1.8,6,.1,12.1-2,17.6-2.6,6.3-7.3,11.8-14,15.2ZM229.49,444.54c9.6-5.5,27.6-2.3,45.6,1,2,.3,3.9.6,5.8,1-9.2,20.9-18.9,41.2-21,71.1-10.5,1-20.8,1.7-30.4,2v-75.1ZM209.49,444.64v75c-9.6-.3-19.9-1-30.4-2-2.1-29.7-11.7-50.1-20.9-70.9,1.9-.3,3.9-.6,5.8-.9,18.2-3,36.3-6,45.5-1.2ZM180.39,423.24c-6.4.7-13,1.8-19.6,2.9-8,1.3-15.9,2.6-23.3,3.2-1-12.8,4.7-27.9,10.3-40.3,7.9,13.5,20.3,24.8,32.6,34.2ZM329.09,196.94l-1.7-5.8-5.9-1.2c-24.4-4.9-27.9-22.8-30.7-37.7-2.6-13.5-4.8-25.4-16.8-31.4l-10.3-5.1-3.4,10.2c-9.2,18.3-27.2,53.8-50.8,53.8-16.5,0-33,.2-49.4,0-18.4-.3-22.2-.4-45.1,11.1l-3.8,1.9-1.3,4.2c-3.4,11.9-2.9,24.8,1.6,36.1,3.7,9.4,10.3,17.7,19.5,23.4,2.8,9.9,6.3,20.1,10.8,29.8,4.6,10,10.4,19.4,17.7,27.4-.2,7.3-.9,14.8-3,21.3l-.1.4c-56.7-9.9-76.9-37-76.9-95.6,0-86.3,41.8-180,140-180s140,93.7,140,180c0,58.7-20.2,85.8-77,95.6l-.1-.3c-2-6.5-2.5-14-2.8-21.4,7.4-8.2,13.2-17.7,17.8-27.7,4.5-9.7,7.8-19.7,10.6-29.5,9.3-5.7,15.8-14,19.6-23.4,4.5-11.3,5-24.1,1.5-36.1ZM245.19,362.62l21.81,26.17,12.93,15.52,20.81,24.97,67.59,81.11,24.67,29.61,147.82-177.38H245.19ZM384.87,499l-96.98-116.38h210.23l-105.12,126.14-8.13-9.76Z"/>
</svg>