<?xml version="1.0" encoding="UTF-8"?>
<svg xmlns="http://www.w3.org/2000/svg" viewBox="0 0 580 580">
  <g id="Ebene_1_Kopie_Kopie" data-name="Ebene 1 Kopie Kopie" image-rendering="optimizeQuality" shape-rendering="geometricPrecision" text-rendering="geometricPrecision" fill="#4d4d4d">
    <path d="M120,309.11v20h111.62c1.28-6.82,2.98-13.49,5.05-20h-116.67ZM120,169.11v20h340v-20H120ZM120,239.11v20h142.48c5.34-7.12,11.22-13.81,17.59-20H120ZM120,169.11v20h340v-20H120ZM120,309.11v20h111.62c1.28-6.82,2.98-13.49,5.05-20h-116.67ZM120,239.11v20h142.48c5.34-7.12,11.22-13.81,17.59-20H120ZM120,309.11v20h111.62c1.28-6.82,2.98-13.49,5.05-20h-116.67ZM120,169.11v20h340v-20H120ZM120,239.11v20h142.48c5.34-7.12,11.22-13.81,17.59-20H120ZM120,309.11v20h111.62c1.28-6.82,2.98-13.49,5.05-20h-116.67ZM120,239.11v20h142.48c5.34-7.12,11.22-13.81,17.59-20H120ZM120,169.11v20h340v-20H120ZM550,139.11v-19.9c-16.6,0-30-13.5-30-30.1v-10H60v10c0,16.6-13.4,30.1-30,30.1v19.9c11.1,0,20,9,20,20.1,3,8.4-10.1,19.9-19.9,19.9v20c11,0,19.9,8.9,19.9,19.9s-8.8,20.1-20,20.1v20c11.1,0,20,8.9,20,20,0,5.5-2.2,10.5-5.9,14.1-3.6,3.6-8.6,5.9-14.1,5.9l.1,20c5.5,0,10.5,2.2,14.1,5.8,3.6,3.6,5.8,8.6,5.8,14.1,0,11.1-8.9,20.1-20,20.1v19.9c16.6,0,30,13.5,30,30.1v10h179.14c-2.4-6.49-4.41-13.16-6-20H79c-2.6-12.8-10.3-24.2-21.1-31.5,7.8-7.6,12.1-17.7,12.1-28.6-.1-11.1-4.6-21-11.8-28.2-.5-.6-1.1-1.2-1.8-1.7.7-.6,1.3-1.2,1.9-1.7,7.2-7.3,11.7-17.3,11.7-28.3,0-11.6-5-22.4-13.6-30,8.6-7.6,13.6-18.5,13.6-30.1-.1-11.5-5-22.3-13.5-29.9,8.6-7.6,13.4-18.4,13.5-29.9,0-10.9-4.3-21-12.1-28.6,10.8-7.3,18.5-18.7,21.1-31.5h422c2.6,12.8,10.3,24.2,20.9,31.7-7.4,7.4-11.9,17.4-11.9,28.4.1,11.6,5,22.3,13.5,29.9-8.6,7.6-13.4,18.4-13.5,29.9,0,6.54,1.59,12.85,4.52,18.48,8.4,7.96,15.99,16.76,22.63,26.27,3.46-2.91,7.94-4.65,12.85-4.65v-20c-11.1,0-20-8.9-20-20.1,0-5.5,2.2-10.5,5.8-14.1,3.8-3.8,8.8-5.8,14.2-5.8v-20c-11.1,0-20-8.7-20-19.9,0-5.6,2.2-10.6,5.8-14.2,3.7-3.6,8.7-5.9,14.2-5.9ZM120,169.11v20h340v-20H120ZM120,239.11v20h142.48c5.34-7.12,11.22-13.81,17.59-20H120ZM120,309.11v20h111.62c1.28-6.82,2.98-13.49,5.05-20h-116.67ZM354.71,437.05l-62.12-62.12,14.14-14.14,62.12,62.12-14.14,14.14ZM362.02,444.37l-14.14-14.14,139.08-139.08,14.14,14.14-139.08,139.08ZM398.14,511.49c-83.24,0-150.97-67.72-150.97-150.97s67.72-150.97,150.97-150.97,150.97,67.72,150.97,150.97-67.72,150.97-150.97,150.97ZM398.14,229.56c-72.21,0-130.97,58.75-130.97,130.97s58.75,130.97,130.97,130.97,130.97-58.75,130.97-130.97-58.75-130.97-130.97-130.97Z"/>
  </g>
</svg>