<?xml version="1.0" encoding="UTF-8"?>
<svg xmlns="http://www.w3.org/2000/svg" viewBox="0 0 580 580">
  <g id="Ebene_1" data-name="Ebene 1" image-rendering="optimizeQuality" shape-rendering="geometricPrecision" text-rendering="geometricPrecision">
    <path fill="#4d4d4d" d="M441.22,421.97v-51.68h-20v51.68h-50.93v20h50.93v50.18h20v-50.18h50.93v-20h-50.93ZM441.22,421.97v-51.68h-20v51.68h-50.93v20h50.93v50.18h20v-50.18h50.93v-20h-50.93ZM421.22,492.15h20v-50.18h50.93v-20h-50.93v-51.68h-20v51.68h-50.93v20h50.93v50.18ZM380.07,82.55c-6.2-12.8-15.8-24.4-27.2-33.1-19.1-14.6-43.7-21.3-66.7-12.6-4.3-2.6-8.1-4.7-12.2-6.6-12.4-5.4-28.1-7.3-41.7-7.1-48.2.9-95.2,30.1-103.3,80.2-.9,5.3-1.5,12.2-1.2,17.6l3.9,59.8c-3,11.5-2.3,24.3,1.9,35.5,3.7,9.9,10.2,18.6,19.4,24.4,3.5,11.7,9.2,26.2,16,39.5,5.5,11,12,21.3,18.8,28.9-.2,8.1-.9,18-3.2,27.1-2.2,9.1-5.9,17-12.1,20.5-11.7,7.3-20.6,9.9-31,13.1-6.9,2.1-13.6,4.2-20.4,6.7-12.6,4.6-28.3,10.4-38.6,20.3-11.1,10.8-19.6,24.3-25.4,38.8-6.2,15.4-9.3,31.9-9.3,47.6,0,22.5,25.4,37,60.5,46.1,46.5,12.1,111.3,15.9,149.5,15.9,10.03,0,21.89-.26,34.77-.87v-20c-12.88.61-24.75.87-34.77.87-37.2,0-100.1-3.6-144.5-15.2-26.4-6.8-45.5-15.7-45.5-26.8,0-13.3,2.6-27.3,7.8-40.2,4.8-12,11.7-23.1,20.8-31.9,7.2-7,20.7-11.9,31.5-15.8,6.4-2.4,12.8-4.4,19.3-6.4,11.8-3.5,21.9-6.6,35.6-15,11.4-6.6,17.7-19.1,21.2-33,3.1-12.7,3.8-26,3.8-35.7,0-2.6-1-5.2-3-7.1-6.2-6.1-12.5-16-18-27-7-13.6-12.7-28.5-15.7-39.7-.7-2.7-2.5-5-5.2-6.4-6.5-3.2-11.1-9-13.6-15.7-2.9-7.7-3.3-16.5-1.2-24.2.5-1.2.7-2.6.6-3.9l-4-61.4c-.1-4.6.3-9,1-13.2,6.5-40.3,45.6-62.7,83.9-63.5,10.6-.1,23.6,1.2,33.4,5.5,4.3,1.9,8.5,4.5,13.9,7.9,2.8,1.8,6.5,2.2,9.7.6,17.4-8.5,36.4-3,51.2,8.2,9,6.9,16.6,16.1,21.4,26,4.3,8.8,6.6,18.2,5.8,27.5l-4.1,62.4c0,1.1.1,2.2.4,3.4,2.3,7.9,2,16.9-.9,24.7-2.5,6.6-7,12.3-13.3,15.6-2.7,1.2-4.8,3.5-5.6,6.5-3,11.1-8.6,26.1-15.7,39.8-4.02,7.9-8.42,15.32-12.96,21.16h24.1c2.36-3.87,4.62-7.93,6.76-12.06,6.8-13.4,12.4-27.9,15.9-39.6,9.3-5.8,15.7-14.5,19.4-24.4,4.3-11.2,4.9-24,1.9-35.5l4-60.6c1-12.7-1.9-25.7-7.8-37.6ZM316.44,316.44l.23,22.48c.07.39-.08-.38,0,0v207.08h229.33v-229.56h-229.56ZM526,526h-189.56v-189.56h189.56v189.56Z"/>
  </g>
</svg>